<svg xmlns="http://www.w3.org/2000/svg" fill="none" viewBox="0 0 24 24" id="LocationWarning"><path fill="#ff2041" fill-rule="evenodd" d="M13.404 21.373C15.6987 18.5858 20 12.7696 20 8.33333C20 4.28325 16.4183 1 12 1C7.58172 1 4 4.28325 4 8.33333C4 12.7696 8.30134 18.5858 10.596 21.373C11.3352 22.2708 12.6648 22.2708 13.404 21.373ZM12 11C11.4477 11 11 10.5523 11 10V6C11 5.44772 11.4477 5 12 5C12.5523 5 13 5.44772 13 6V10C13 10.5523 12.5523 11 12 11ZM13 13C13 13.5523 12.5523 14 12 14C11.4477 14 11 13.5523 11 13C11 12.4477 11.4477 12 12 12C12.5523 12 13 12.4477 13 13Z" clip-rule="evenodd" class="color443c67 svgShape"></path></svg>